<svg xmlns="http://www.w3.org/2000/svg" viewBox="0 0 488.71 390.47" fill="none">
  <rect x="11.55" y="11.58" width="465.61" height="367.32" rx="8" fill="none" stroke="currentColor" stroke-width="16" stroke-miterlimit="10"/>
  <path d="M444.6,362.69c-97.38,11.72-181.59,17.67-280.18,11.29-40.87-2.64-80.96-6.7-121.45-11.64-7.13-.87-14.08-4.97-15.18-12.68l-6.83-48.01c-8.41-69.97-8.53-129.93-.99-199.93l7.82-61c.75-5.83,6.62-11.7,12.54-12.38l69.08-7.83c85.8-8.01,164.53-8.91,250.58-1.8,30.05,2.48,59.31,5.55,88.96,9.78,7.52,1.07,11.93,8.8,12.76,15.47l4.78,38.37c9.52,76.31,10.84,148.18.64,224.61l-5.44,40.75c-1.25,9.37-8.4,13.97-17.1,15.01Z" fill="none" stroke="currentColor" stroke-width="20" stroke-miterlimit="10"/>
  <g transform="translate(61.6 190.93) scale(0.24)">
    <g transform="translate(0.000000,227.000000) scale(0.100000,-0.100000)"
fill="currentColor" stroke="none">
<path d="M40 1145 l0 -1086 518 3 c502 3 519 4 574 25 159 60 288 211 318 372
14 76 13 1319 -1 1397 -25 138 -131 279 -259 342 l-63 32 -544 0 -543 0 0
-1085z m795 838 c22 -12 54 -36 72 -55 65 -68 63 -39 63 -773 l0 -666 -25 -48
c-13 -27 -39 -61 -57 -76 -59 -50 -92 -58 -250 -63 l-148 -4 0 857 0 857 153
-4 c132 -3 157 -6 192 -25z"/>
<path d="M1950 1145 l0 -1085 240 0 240 0 0 485 0 485 153 0 c126 0 159 -4
192 -19 51 -23 118 -98 133 -149 8 -27 12 -157 12 -421 l0 -381 240 0 240 0 0
463 c0 519 1 506 -75 580 -48 47 -114 67 -219 68 l-81 0 67 18 c128 33 222
123 279 269 32 79 40 343 14 439 -33 120 -145 253 -259 307 l-55 26 -560 0
-561 0 0 -1085z m794 851 c62 -19 109 -56 143 -114 27 -46 28 -52 31 -221 3
-145 1 -181 -13 -218 -24 -62 -70 -112 -130 -139 -45 -22 -64 -24 -197 -24
l-148 0 0 358 c0 197 3 362 7 365 13 13 259 7 307 -7z"/>
<path d="M3890 1145 l0 -1085 608 2 607 3 3 118 3 117 -366 0 -365 0 0 365 0
365 240 0 240 0 0 125 0 125 -240 0 -240 0 0 365 0 365 365 0 365 0 0 110 0
110 -610 0 -610 0 0 -1085z"/>
<path d="M7540 1145 l0 -1085 120 0 120 0 0 667 0 668 425 -425 425 -425 425
425 425 425 0 -668 0 -667 245 0 245 0 0 1085 0 1085 -132 0 -133 0 -507 -507
-508 -508 -508 508 -507 507 -68 0 -67 0 0 -1085z"/>
<path d="M10452 1148 l3 -1083 608 -3 607 -2 0 120 0 120 -362 2 -363 3 -3
362 -2 363 242 2 243 3 3 123 3 122 -246 0 -245 0 0 365 0 365 365 0 365 0 0
110 0 110 -610 0 -610 0 2 -1082z"/>
<path d="M12152 1148 l3 -1083 243 -3 242 -2 0 485 0 485 150 0 c168 0 201 -8
258 -63 19 -18 43 -50 55 -72 21 -39 22 -52 25 -437 l3 -398 239 0 240 0 0
463 c0 525 2 508 -84 584 -54 48 -104 63 -213 64 l-78 1 50 12 c111 28 169 68
232 158 73 104 86 151 91 324 5 169 -4 226 -46 312 -37 77 -141 181 -219 221
l-62 31 -566 0 -565 0 2 -1082z m806 847 c69 -21 136 -88 157 -157 18 -61 21
-321 5 -380 -17 -59 -69 -120 -129 -150 -52 -27 -61 -28 -203 -28 l-148 0 0
365 0 365 133 0 c90 0 150 -5 185 -15z"/>
<path d="M14369 2198 c-125 -62 -231 -199 -259 -335 -19 -89 -8 -315 17 -381
36 -91 76 -142 369 -469 157 -175 294 -335 305 -355 40 -78 33 -195 -16 -269
-81 -124 -350 -104 -420 32 -8 14 -17 49 -21 77 l-7 52 -118 0 -119 0 0 -42
c0 -66 27 -177 57 -236 45 -89 133 -156 248 -189 70 -20 409 -29 502 -14 176
30 322 155 384 327 29 80 33 319 7 404 -31 100 -86 171 -380 500 -160 179
-299 343 -309 365 -21 45 -25 139 -9 197 40 144 276 198 389 89 37 -35 81
-128 81 -171 0 -19 7 -20 120 -20 l120 0 0 43 c-1 163 -99 330 -233 397 l-60
30 -292 0 -292 0 -64 -32z"/>
</g>
  </g>
  <line x1="191.76" y1="219.28" x2="222.64" y2="219.28" stroke="currentColor" stroke-width="6.15" stroke-miterlimit="10"/>
  <g transform="translate(239.92 134.77) scale(0.24)">
    <g transform="translate(0.000000,217.000000) scale(0.100000,-0.100000)"
fill="currentColor" stroke="none">
<path d="M0 1085 l0 -1086 528 3 c512 3 529 4 584 25 159 60 288 211 318 372
14 76 13 1319 -1 1397 -25 138 -131 279 -259 342 l-63 32 -554 0 -553 0 0
-1085z m815 838 c22 -12 54 -36 72 -55 65 -68 63 -39 63 -773 l0 -666 -25 -48
c-13 -27 -39 -61 -57 -76 -59 -50 -92 -58 -250 -63 l-148 -4 0 857 0 857 153
-4 c132 -3 157 -6 192 -25z"/>
<path d="M2200 2142 c-86 -43 -183 -141 -228 -230 l-37 -76 -3 -918 -2 -918
240 0 240 0 0 485 0 485 245 0 245 0 0 -485 0 -485 240 0 240 0 0 894 c0 850
-1 897 -19 955 -10 34 -33 83 -51 111 -43 68 -138 153 -204 184 l-55 26 -398
0 -398 -1 -55 -27z m570 -225 c52 -27 104 -91 120 -145 5 -21 10 -148 10 -294
l0 -258 -246 0 -245 0 3 273 c3 306 4 310 81 387 73 72 181 87 277 37z"/>
<path d="M3872 1753 c4 -402 5 -420 26 -478 58 -157 208 -265 409 -293 l48 -7
3 -488 2 -487 243 2 242 3 5 484 5 484 68 14 c197 40 323 135 379 288 21 58
22 76 26 478 l3 417 -240 0 -240 0 -3 -382 -3 -383 -29 -53 c-80 -144 -256
-177 -374 -69 -83 77 -82 70 -82 505 l0 382 -246 0 -245 0 3 -417z"/>
</g>
  </g>
  <g id="Generative_Object" data-name="Generative Object">
        <g>
          <path fill="currentColor" d="M240.35,132.85c.11.11.13.19.03.29-.89.7-1.44,1.49-1.93,2.52-.25.53-.27,1.95.05,2.49l.11.86.92,1.1c.15.42-.06.62-.49.47l-2.13-1.98-1.96-.09c-.3,1.53-.85,3.05-1.93,4.21.87.26,1.79.37,2.75.32l.23.08c.17.35.19,1.75-.05,1.99-.05.05-.15.06-.25.06-1.99-.08-3.95-.34-5.86-.79l-.17,1.41c2.25.57,4.32.2,6.49-.19.24.04.25.06.34.3.3.79.3,2.65.24,3.55-.06.78-.2,2.05-.51,2.74-.08.18-.13.28-.33.29-1.79-.44-3.57-.83-5.42-.83.33.26.76.63.84,1.06.08.45-.23,2.01-.49,2.44.17.42.06.93-.25,1.26-.06.49-.37.92-.77,1.2l-2.84,1.6c.37.83.58,1.73.48,2.64-.54,3.52-1.13,7.04-1.84,10.51-.52,1.8-1.45,3.45-3.11,4.39l1.55,7.35c.45,2.16.6,4.38.41,6.58l.39,1.04c.08.31.01.68-.2.92-.42.46-2.09,1.42-2.68,1.59-.09.03-.19.02-.29.02,1.49,1.96,2.77,4.13,3.98,6.28,1.05,1.87,2.04,3.74,2.44,5.84l7.41,33.06c.05.61-.18,1.16-.68,1.65l7.85,8.82c.44.58.76,1.28.97,1.99.64,2.23-.07,2.94-1.64,4.34-.5.11-1.01.19-1.53.23l-2.24-.03c-3.88-.34-9.08-2.69-11.52-5.8-.73-.94-1.63-1.63-2.67-2.19-.94-.51-1.78-1.11-2.57-1.82-.43-.39-.77-.86-1.07-1.35-.2-.31-.25-.67-.24-1.04l.05-3.31c-.46-.42-.85-.8-1.19-1.29l-1.36-10.85-2.51-19.92-2.61-3.66c-.47,1.27-.73,2.65-1.66,3.61l-3.46,3.54-1.92,1.88-9.1,8.42c.12.84.44,1.51.95,2.11l1.61,1.89c.85,1,1.16,2.33.7,3.56-.3.79-.95,1.24-1.79,1.29-1.62.09-3.24-.18-4.72-.82-1.1-.48-1.93-1.23-2.5-2.28l-1.27-2.32c-.33-.61-.72-1.18-1.29-1.58l-1.03-.34c-1.35-1.11-2.47-2.6-2.91-4.35.07-1.83,1.67-2.97,2.08-3.64.29-.48.2-1.17.66-1.59l1.09-.99c2.46-2.46,5.01-4.73,7.78-6.84l5.78-4.4,1.28-7.52-1.9-.03-1.05-3.36c-.55-1.77-.86-3.59-.78-5.48l.5-12.74c.08-2.16-.09-4.15-.59-6.23-.57-2.37-.94-4.71-.99-7.16-.02-.86.21-1.67.49-2.46.5-1.4,1.05-2.74,1.63-4.11.91-2.14-.5-3.61.69-5.33l1.45-.16c.02-.83-.19-1.58-.39-2.37-.44-1.76-.7-3.52-.4-5.4-1.88,0-3.32-1.58-3.11-3.5.14-1.29,1.04-2.33,2.21-2.71,1.24-.4,2.57,0,3.44,1,2.04-1.26,5.11-1.39,7.39-.61,1.57.54,2.79,1.54,3.93,2.71.55.56,1.06,1.08,1.31,1.84.13.39.02.66-.12,1.03-.3.78.21,2.21.2,3.35l1.51.05c.25,0,.48-.66,1.06-.6.18.02.36.14.55.29.31-.45.81-.58,1.29-.33.73-.3,1.44-.22,2.2-.16,2.06.17,4.07.22,6.18.26l2.1-4.81c-.18-.39-.2-.8-.23-1.22-.24-.42-.13-.83.28-1.1.12-.56.51-1.23,1.15-1.24l4.56-.05c.28,0,.59.02.83-.13l1.7-1.18h.44Z"/>
          <g>
            <path fill="currentColor" d="M217.09,162.3c-.55-.29-.91-.76-1.22-1.3-.73-1.3-1.31-2.64-1.74-4.08l-1.08-3.59c.76-.35,1.27-1.02,1.52-1.81l.31-1,2.37.22c.23.39.35.83.67,1.13.77.71,1.42,1.45,1.99,2.38-.6,1.61-1.25,3.16-2.03,4.7-.47,1.05-.72,2.09-.78,3.34Z"/>
            <path fill="currentColor" d="M226.47,144.48c-.6.13-.62.89-.97.91-.56.04-.25-.92-.87-1.87,1.41.07,2.72.21,4.1.43l-1.58,1.57c-.04-.56-.16-.94-.68-1.04Z"/>
            <g>
              <path fill="currentColor" d="M231.74,141.61c.11-.24.48-.26.44-.62-.03-.29-.71-.49-.97-.37-.47.22-.09.58-.11,1.05-.19,0-.37-.02-.55-.11l1.54-3.49c.37-.04.68-.03,1.02.06.06,1.3-.4,3.72-1.23,3.69-.09,0-.21-.06-.15-.2Z"/>
              <path fill="currentColor" d="M228.8,145.65c-.23.02-.45-.01-.73-.12l.78-.83-.06.95Z"/>
            </g>
            <path fill="currentColor" d="M223.18,143.56c.27.35.38.77.25,1.17-.22-.52-.37-.94-.79-1.3.21-.17.42-.05.54.12Z"/>
          </g>
        </g>
      </g>
</svg>